<?xml version="1.0" standalone="no"?>
<!DOCTYPE svg PUBLIC "-//W3C//DTD SVG 20010904//EN"
 "http://www.w3.org/TR/2001/REC-SVG-20010904/DTD/svg10.dtd">
<svg version="1.0" xmlns="http://www.w3.org/2000/svg"
 width="1500.000000pt" height="1500.000000pt" viewBox="0 0 1500.000000 1500.000000"
 preserveAspectRatio="xMidYMid meet">
<metadata>
Created by potrace 1.14, written by Peter Selinger 2001-2017
</metadata>
<g transform="translate(0.000000,1500.000000) scale(0.100000,-0.100000)"
fill="#000000" stroke="none">
<path d="M0 7500 l0 -7500 7500 0 7500 0 0 7500 0 7500 -7500 0 -7500 0 0
-7500z m8220 18 c969 -2455 1765 -4469 1767 -4475 4 -10 -41 -13 -203 -13
l-209 0 -1540 3898 c-847 2143 -1596 4039 -1664 4212 l-125 315 -21 -50 c-12
-28 -761 -1923 -1666 -4212 l-1644 -4163 -207 0 c-115 0 -208 3 -208 8 0 4
795 2017 1767 4475 l1766 4467 212 0 212 0 1763 -4462z m840 -13 l1767 -4470
-205 -3 c-113 -1 -209 1 -213 5 -7 8 -3518 8893 -3527 8926 -4 16 9 17 203 15
l207 -3 1768 -4470z m839 0 l1768 -4470 -205 -3 c-113 -1 -207 -1 -209 1 -1 2
-797 2012 -1768 4466 -971 2455 -1768 4467 -1771 4472 -3 6 80 8 206 7 l211
-3 1768 -4470z m834 8 c972 -2458 1767 -4471 1767 -4475 0 -5 -93 -8 -207 -8
l-208 0 -1754 4443 c-965 2443 -1761 4457 -1768 4475 l-13 32 208 0 209 0
1766 -4467z m-4329 2773 c58 -131 106 -244 106 -251 0 -12 -2756 -6994 -2764
-7002 -1 -2 -95 -2 -208 -1 l-205 3 1413 3580 c778 1969 1444 3656 1480 3748
36 93 67 167 69 165 2 -2 51 -110 109 -242z m431 -1063 l97 -253 -1169 -2967
-1170 -2968 -213 -3 c-168 -2 -211 0 -207 10 3 7 578 1463 1278 3236 740 1875
1276 3218 1280 3210 4 -7 51 -127 104 -265z m410 -1070 l98 -263 -16 -42 c-10
-24 -441 -1117 -959 -2430 l-943 -2388 -208 0 c-125 0 -207 4 -205 9 53 151
2125 5388 2129 5383 3 -4 50 -125 104 -269z m1002 -2297 c40 -99 73 -184 73
-188 0 -4 -367 -8 -815 -8 -448 0 -815 2 -815 5 0 6 140 357 147 368 2 4 304
6 670 5 l666 -3 74 -179z m308 -781 l81 -190 -563 -3 c-310 -1 -817 -1 -1127
0 l-564 3 38 95 c20 52 54 139 75 193 l37 97 971 -2 971 -3 81 -190z m306
-780 c43 -104 79 -191 79 -192 0 -2 -644 -3 -1431 -3 -1141 0 -1430 3 -1426
13 47 120 135 346 140 360 6 16 74 17 1283 15 l1276 -3 79 -190z"/>
</g>
</svg>
